<mxfile host="app.diagrams.net" modified="2023-09-26T13:01:04.305Z" agent="Mozilla/5.0 (X11; Linux x86_64) AppleWebKit/537.36 (KHTML, like Gecko) Chrome/117.0.0.0 Safari/537.36" version="21.8.2" etag="0-XUl1lJQgaxiJHQfLPD" type="device">
  <diagram id="2Bqq6lJZGTsh3bIGEK71" name="Page-1">
    <mxGraphModel dx="880" dy="1697" grid="1" gridSize="10" guides="1" tooltips="1" connect="1" arrows="1" fold="1" page="1" pageScale="1" pageWidth="827" pageHeight="1169" math="0" shadow="0">
      <root>
        <mxCell id="0" />
        <mxCell id="1" parent="0" />
        <mxCell id="2" style="edgeStyle=none;html=1;endArrow=diamondThin;endFill=1;strokeWidth=1;endSize=17;jumpStyle=none;" parent="1" source="3" target="10" edge="1">
          <mxGeometry relative="1" as="geometry" />
        </mxCell>
        <mxCell id="3" value="&lt;p style=&quot;line-height: 120%;&quot;&gt;Pedido&lt;/p&gt;" style="swimlane;fontStyle=1;align=center;verticalAlign=middle;childLayout=stackLayout;horizontal=1;startSize=30;horizontalStack=0;resizeParent=1;resizeParentMax=0;resizeLast=0;collapsible=0;marginBottom=0;html=1;whiteSpace=wrap;" parent="1" vertex="1">
          <mxGeometry x="180" y="-290" width="300" height="288" as="geometry" />
        </mxCell>
        <mxCell id="4" value="- numeroPedido: int" style="text;html=1;strokeColor=none;fillColor=none;align=left;verticalAlign=middle;spacingLeft=4;spacingRight=4;overflow=hidden;rotatable=0;points=[[0,0.5],[1,0.5]];portConstraint=eastwest;whiteSpace=wrap;" parent="3" vertex="1">
          <mxGeometry y="30" width="300" height="25" as="geometry" />
        </mxCell>
        <mxCell id="23" value="- itens: ArrayList&amp;lt;ItemPedido&amp;gt;" style="text;html=1;strokeColor=none;fillColor=none;align=left;verticalAlign=middle;spacingLeft=4;spacingRight=4;overflow=hidden;rotatable=0;points=[[0,0.5],[1,0.5]];portConstraint=eastwest;whiteSpace=wrap;" parent="3" vertex="1">
          <mxGeometry y="55" width="300" height="25" as="geometry" />
        </mxCell>
        <mxCell id="5" value="" style="line;html=1;strokeWidth=1;align=left;verticalAlign=middle;spacingTop=-1;spacingLeft=3;spacingRight=3;rotatable=0;labelPosition=right;points=[];portConstraint=eastwest;" parent="3" vertex="1">
          <mxGeometry y="80" width="300" height="8" as="geometry" />
        </mxCell>
        <mxCell id="6" value="+ getNumeroPedido(): int" style="text;html=1;strokeColor=none;fillColor=none;align=left;verticalAlign=middle;spacingLeft=4;spacingRight=4;overflow=hidden;rotatable=0;points=[[0,0.5],[1,0.5]];portConstraint=eastwest;whiteSpace=wrap;" parent="3" vertex="1">
          <mxGeometry y="88" width="300" height="25" as="geometry" />
        </mxCell>
        <mxCell id="7" value="+ getItens(): ArrayList&amp;lt;ItemPedido&amp;gt;" style="text;html=1;strokeColor=none;fillColor=none;align=left;verticalAlign=middle;spacingLeft=4;spacingRight=4;overflow=hidden;rotatable=0;points=[[0,0.5],[1,0.5]];portConstraint=eastwest;whiteSpace=wrap;" parent="3" vertex="1">
          <mxGeometry y="113" width="300" height="25" as="geometry" />
        </mxCell>
        <mxCell id="27" value="+ setNumeroPedido(numeroPedido: int): void" style="text;html=1;strokeColor=none;fillColor=none;align=left;verticalAlign=middle;spacingLeft=4;spacingRight=4;overflow=hidden;rotatable=0;points=[[0,0.5],[1,0.5]];portConstraint=eastwest;whiteSpace=wrap;labelBackgroundColor=none;" parent="3" vertex="1">
          <mxGeometry y="138" width="300" height="25" as="geometry" />
        </mxCell>
        <mxCell id="26" value="+ setItens(itens: ArrayList&amp;lt;ItemPedido&amp;gt;): void" style="text;html=1;strokeColor=none;fillColor=none;align=left;verticalAlign=middle;spacingLeft=4;spacingRight=4;overflow=hidden;rotatable=0;points=[[0,0.5],[1,0.5]];portConstraint=eastwest;whiteSpace=wrap;labelBackgroundColor=none;" parent="3" vertex="1">
          <mxGeometry y="163" width="300" height="25" as="geometry" />
        </mxCell>
        <mxCell id="42" value="+ adicionarItem(item: ItemPedido): void" style="text;html=1;strokeColor=none;fillColor=none;align=left;verticalAlign=middle;spacingLeft=4;spacingRight=4;overflow=hidden;rotatable=0;points=[[0,0.5],[1,0.5]];portConstraint=eastwest;whiteSpace=wrap;labelBackgroundColor=none;" parent="3" vertex="1">
          <mxGeometry y="188" width="300" height="25" as="geometry" />
        </mxCell>
        <mxCell id="43" value="+ calcularTotal(): Double" style="text;html=1;strokeColor=none;fillColor=none;align=left;verticalAlign=middle;spacingLeft=4;spacingRight=4;overflow=hidden;rotatable=0;points=[[0,0.5],[1,0.5]];portConstraint=eastwest;whiteSpace=wrap;labelBackgroundColor=none;" parent="3" vertex="1">
          <mxGeometry y="213" width="300" height="25" as="geometry" />
        </mxCell>
        <mxCell id="29" value="+ clone(): Pedido" style="text;html=1;strokeColor=none;fillColor=none;align=left;verticalAlign=middle;spacingLeft=4;spacingRight=4;overflow=hidden;rotatable=0;points=[[0,0.5],[1,0.5]];portConstraint=eastwest;whiteSpace=wrap;labelBackgroundColor=none;" parent="3" vertex="1">
          <mxGeometry y="238" width="300" height="25" as="geometry" />
        </mxCell>
        <mxCell id="28" value="+ toString(): String" style="text;html=1;strokeColor=none;fillColor=none;align=left;verticalAlign=middle;spacingLeft=4;spacingRight=4;overflow=hidden;rotatable=0;points=[[0,0.5],[1,0.5]];portConstraint=eastwest;whiteSpace=wrap;labelBackgroundColor=none;" parent="3" vertex="1">
          <mxGeometry y="263" width="300" height="25" as="geometry" />
        </mxCell>
        <mxCell id="10" value="&lt;p style=&quot;line-height: 120%;&quot;&gt;ItemPedido&lt;/p&gt;" style="swimlane;fontStyle=1;align=center;verticalAlign=middle;childLayout=stackLayout;horizontal=1;startSize=30;horizontalStack=0;resizeParent=1;resizeParentMax=0;resizeLast=0;collapsible=0;marginBottom=0;html=1;whiteSpace=wrap;" parent="1" vertex="1">
          <mxGeometry x="192.5" y="70" width="275" height="338" as="geometry" />
        </mxCell>
        <mxCell id="11" value="- produto: String" style="text;html=1;strokeColor=none;fillColor=none;align=left;verticalAlign=middle;spacingLeft=4;spacingRight=4;overflow=hidden;rotatable=0;points=[[0,0.5],[1,0.5]];portConstraint=eastwest;whiteSpace=wrap;" parent="10" vertex="1">
          <mxGeometry y="30" width="275" height="25" as="geometry" />
        </mxCell>
        <mxCell id="12" value="- quantidade: int" style="text;html=1;strokeColor=none;fillColor=none;align=left;verticalAlign=middle;spacingLeft=4;spacingRight=4;overflow=hidden;rotatable=0;points=[[0,0.5],[1,0.5]];portConstraint=eastwest;whiteSpace=wrap;" parent="10" vertex="1">
          <mxGeometry y="55" width="275" height="25" as="geometry" />
        </mxCell>
        <mxCell id="34" value="- precoUnitario: Double" style="text;html=1;strokeColor=none;fillColor=none;align=left;verticalAlign=middle;spacingLeft=4;spacingRight=4;overflow=hidden;rotatable=0;points=[[0,0.5],[1,0.5]];portConstraint=eastwest;whiteSpace=wrap;" parent="10" vertex="1">
          <mxGeometry y="80" width="275" height="25" as="geometry" />
        </mxCell>
        <mxCell id="14" value="" style="line;html=1;strokeWidth=1;align=left;verticalAlign=middle;spacingTop=-1;spacingLeft=3;spacingRight=3;rotatable=0;labelPosition=right;points=[];portConstraint=eastwest;" parent="10" vertex="1">
          <mxGeometry y="105" width="275" height="8" as="geometry" />
        </mxCell>
        <mxCell id="36" value="+ getProduto(): String" style="text;html=1;strokeColor=none;fillColor=none;align=left;verticalAlign=middle;spacingLeft=4;spacingRight=4;overflow=hidden;rotatable=0;points=[[0,0.5],[1,0.5]];portConstraint=eastwest;whiteSpace=wrap;labelBackgroundColor=none;" parent="10" vertex="1">
          <mxGeometry y="113" width="275" height="25" as="geometry" />
        </mxCell>
        <mxCell id="37" value="+ getQuantidade(): int" style="text;html=1;strokeColor=none;fillColor=none;align=left;verticalAlign=middle;spacingLeft=4;spacingRight=4;overflow=hidden;rotatable=0;points=[[0,0.5],[1,0.5]];portConstraint=eastwest;whiteSpace=wrap;labelBackgroundColor=none;" parent="10" vertex="1">
          <mxGeometry y="138" width="275" height="25" as="geometry" />
        </mxCell>
        <mxCell id="38" value="+ getPrecoUnitario(): Double" style="text;html=1;strokeColor=none;fillColor=none;align=left;verticalAlign=middle;spacingLeft=4;spacingRight=4;overflow=hidden;rotatable=0;points=[[0,0.5],[1,0.5]];portConstraint=eastwest;whiteSpace=wrap;labelBackgroundColor=none;" parent="10" vertex="1">
          <mxGeometry y="163" width="275" height="25" as="geometry" />
        </mxCell>
        <mxCell id="39" value="+ setProduto(produto: String): void" style="text;html=1;strokeColor=none;fillColor=none;align=left;verticalAlign=middle;spacingLeft=4;spacingRight=4;overflow=hidden;rotatable=0;points=[[0,0.5],[1,0.5]];portConstraint=eastwest;whiteSpace=wrap;labelBackgroundColor=none;" parent="10" vertex="1">
          <mxGeometry y="188" width="275" height="25" as="geometry" />
        </mxCell>
        <mxCell id="40" value="+ setQuantidade(quantidade: int): void" style="text;html=1;strokeColor=none;fillColor=none;align=left;verticalAlign=middle;spacingLeft=4;spacingRight=4;overflow=hidden;rotatable=0;points=[[0,0.5],[1,0.5]];portConstraint=eastwest;whiteSpace=wrap;labelBackgroundColor=none;" parent="10" vertex="1">
          <mxGeometry y="213" width="275" height="25" as="geometry" />
        </mxCell>
        <mxCell id="41" value="+ setPrecoUnitario(precoUnitario: Double): void" style="text;html=1;strokeColor=none;fillColor=none;align=left;verticalAlign=middle;spacingLeft=4;spacingRight=4;overflow=hidden;rotatable=0;points=[[0,0.5],[1,0.5]];portConstraint=eastwest;whiteSpace=wrap;labelBackgroundColor=none;" parent="10" vertex="1">
          <mxGeometry y="238" width="275" height="25" as="geometry" />
        </mxCell>
        <mxCell id="i2lr0WhEhQDTFdxYKKN7-43" value="+ calcularTotal(): Double" style="text;html=1;strokeColor=none;fillColor=none;align=left;verticalAlign=middle;spacingLeft=4;spacingRight=4;overflow=hidden;rotatable=0;points=[[0,0.5],[1,0.5]];portConstraint=eastwest;whiteSpace=wrap;labelBackgroundColor=none;" vertex="1" parent="10">
          <mxGeometry y="263" width="275" height="25" as="geometry" />
        </mxCell>
        <mxCell id="32" value="+ clone(): ItemPedido" style="text;html=1;strokeColor=none;fillColor=none;align=left;verticalAlign=middle;spacingLeft=4;spacingRight=4;overflow=hidden;rotatable=0;points=[[0,0.5],[1,0.5]];portConstraint=eastwest;whiteSpace=wrap;labelBackgroundColor=none;" parent="10" vertex="1">
          <mxGeometry y="288" width="275" height="25" as="geometry" />
        </mxCell>
        <mxCell id="33" value="+ toString(): String" style="text;html=1;strokeColor=none;fillColor=none;align=left;verticalAlign=middle;spacingLeft=4;spacingRight=4;overflow=hidden;rotatable=0;points=[[0,0.5],[1,0.5]];portConstraint=eastwest;whiteSpace=wrap;labelBackgroundColor=none;" parent="10" vertex="1">
          <mxGeometry y="313" width="275" height="25" as="geometry" />
        </mxCell>
      </root>
    </mxGraphModel>
  </diagram>
</mxfile>
